<?xml version="1.0" encoding="UTF-8" standalone="no"?>
<!-- Created with Inkscape (http://www.inkscape.org/) -->

<svg
   xmlns:dc="http://purl.org/dc/elements/1.1/"
   xmlns:cc="http://creativecommons.org/ns#"
   xmlns:rdf="http://www.w3.org/1999/02/22-rdf-syntax-ns#"
   xmlns:svg="http://www.w3.org/2000/svg"
   xmlns="http://www.w3.org/2000/svg"
   version="1.1"
   width="497.44485"
   height="147.15353"
   id="svg2">
  <defs
     id="defs4">
 <linearGradient
   x1="5366.75"
   y1="12632.1"
   x2="5366.75"
   y2="16033.6"
   id="id0"
   gradientUnits="userSpaceOnUse">
   <stop
   id="stop2992"
   style="stop-color:#6ebf61;stop-opacity:1"
   offset="0" />

   <stop
   id="stop2994"
   style="stop-color:#50a557;stop-opacity:1"
   offset="0.231373" />

   <stop
   id="stop2996"
   style="stop-color:#2a904f;stop-opacity:1"
   offset="0.52156901" />

   <stop
   id="stop2998"
   style="stop-color:#50a557;stop-opacity:1"
   offset="0.81176502" />

   <stop
   id="stop3000"
   style="stop-color:#6ebf63;stop-opacity:1"
   offset="1" />

  </linearGradient>

  <style
   type="text/css"
   id="style2989" />

  </defs>
  <metadata
     id="metadata7">
    <rdf:RDF>
      <cc:Work
         rdf:about="">
        <dc:format>image/svg+xml</dc:format>
        <dc:type
           rdf:resource="http://purl.org/dc/dcmitype/StillImage" />
        <dc:title></dc:title>
      </cc:Work>
    </rdf:RDF>
  </metadata>
  <g
     transform="translate(-119.84899,-461.64256)"
     id="layer1">
    <g
       transform="matrix(0.03543307,0,0,0.03543307,4.0182879,25.461464)"
       id="g3024"
       style="fill-rule:evenodd">
      <g
         id="Camada_x0020_1">
  <metadata
   id="CorelCorpID_0Corel-Layer" />

  <g
   id="_315123152">
   <path
   d="m 17014,14790 c -8,40 -22,74 -41,104 -19,30 -44,54 -76,73 -31,18 -70,28 -116,28 -45,0 -84,-9 -115,-28 -32,-19 -57,-43 -77,-73 -19,-30 -33,-64 -42,-104 -9,-40 -13,-80 -13,-121 0,-42 4,-84 12,-123 8,-40 22,-75 41,-105 19,-31 44,-55 76,-75 31,-19 70,-29 116,-29 45,0 83,10 114,29 31,19 57,45 77,76 20,31 34,67 43,106 9,40 13,80 13,121 0,41 -4,81 -12,121 z m 266,-323 c -19,-67 -47,-125 -85,-176 -39,-50 -87,-91 -145,-121 -58,-30 -128,-46 -209,-46 -64,0 -122,13 -175,38 -53,25 -97,66 -131,121 l -4,0 0,-131 -268,0 0,1387 282,0 0,-487 4,0 c 34,50 79,88 132,114 54,26 112,39 176,39 75,0 141,-15 198,-44 56,-29 103,-68 141,-117 38,-49 66,-105 84,-169 19,-64 28,-130 28,-199 0,-73 -9,-143 -28,-210 z m -1391,323 c -8,40 -22,74 -41,104 -19,30 -44,54 -76,73 -31,18 -70,28 -116,28 -45,0 -83,-9 -115,-28 -32,-19 -57,-43 -77,-73 -19,-30 -33,-64 -42,-104 -9,-40 -13,-80 -13,-121 0,-42 4,-84 12,-123 8,-40 22,-75 41,-105 19,-31 44,-55 76,-75 31,-19 70,-29 116,-29 45,0 83,10 114,29 31,19 57,45 77,76 20,31 34,67 43,106 9,40 13,80 13,121 0,41 -4,81 -12,121 z m 181,-499 c -38,-50 -87,-91 -145,-121 -58,-30 -128,-46 -209,-46 -64,0 -122,13 -175,38 -53,25 -97,66 -131,121 l -4,0 0,-131 -268,0 0,1387 282,0 0,-487 4,0 c 34,50 79,88 132,114 54,26 112,39 176,39 76,0 141,-15 198,-44 56,-29 103,-68 141,-117 38,-49 66,-105 85,-169 18,-64 28,-130 28,-199 0,-73 -9,-143 -28,-210 -19,-67 -47,-125 -86,-176 z m -1856,340 185,-521 4,0 179,521 -368,0 z m 30,-871 -537,1419 314,0 111,-316 531,0 107,316 324,0 -531,-1419 -320,0 z m -560,969 c -19,-32 -43,-60 -74,-82 -30,-22 -65,-39 -104,-53 -39,-13 -79,-24 -120,-34 -40,-9 -79,-18 -117,-26 -38,-8 -73,-17 -102,-27 -30,-10 -54,-23 -72,-39 -19,-16 -28,-36 -28,-62 0,-21 5,-38 16,-51 11,-13 24,-22 39,-29 15,-7 32,-11 51,-13 19,-2 36,-3 52,-3 50,0 94,10 131,29 37,19 58,56 61,110 l 268,0 c -5,-64 -22,-116 -49,-158 -27,-42 -61,-75 -102,-100 -41,-25 -88,-43 -140,-54 -52,-11 -106,-16 -162,-16 -56,0 -110,5 -163,15 -53,10 -101,27 -143,52 -43,25 -77,58 -102,100 -26,42 -39,97 -39,163 0,45 9,83 28,114 18,31 43,57 73,78 31,20 65,37 104,50 39,13 79,24 120,33 101,21 179,42 236,63 56,21 84,53 84,95 0,25 -6,46 -18,63 -12,17 -27,30 -45,40 -18,10 -38,17 -60,22 -22,5 -43,7 -63,7 -28,0 -55,-3 -80,-10 -26,-7 -49,-17 -69,-31 -20,-14 -36,-32 -49,-54 -13,-22 -19,-48 -19,-78 l -268,0 c 3,69 18,126 47,172 28,46 65,82 109,110 44,28 95,48 152,60 57,12 115,18 175,18 58,0 116,-6 172,-17 56,-11 106,-31 150,-59 44,-28 79,-65 106,-110 27,-46 41,-102 41,-170 0,-48 -9,-88 -28,-120 z m -1167,-885 -282,0 0,308 -171,0 0,189 171,0 0,606 c 0,52 9,93 26,125 17,32 41,56 71,74 30,17 64,29 103,35 39,6 81,9 124,9 28,0 56,-1 86,-2 29,-1 56,-4 79,-8 l 0,-219 c -13,3 -27,5 -42,6 -15,1 -30,2 -46,2 -48,0 -79,-8 -95,-24 -16,-16 -24,-48 -24,-95 l 0,-509 207,0 0,-189 -207,0 0,-308 z m -809,938 c 0,16 -2,37 -5,64 -3,26 -12,53 -27,78 -15,26 -37,48 -68,67 -30,19 -74,28 -129,28 -22,0 -44,-2 -66,-6 -21,-4 -40,-11 -56,-21 -16,-10 -28,-23 -38,-41 -9,-17 -14,-38 -14,-64 0,-27 5,-48 14,-66 9,-17 22,-31 37,-43 15,-11 33,-20 54,-27 21,-7 41,-12 63,-16 22,-4 45,-7 68,-10 23,-3 44,-6 65,-10 21,-4 40,-9 58,-15 18,-6 33,-14 45,-25 l 0,105 z m 282,169 0,-535 c 0,-62 -14,-112 -42,-150 -28,-38 -64,-67 -107,-88 -44,-21 -92,-35 -145,-43 -53,-7 -105,-11 -157,-11 -57,0 -114,6 -170,17 -56,11 -107,30 -152,57 -45,27 -82,62 -111,105 -29,44 -46,99 -50,165 l 282,0 c 5,-56 24,-95 56,-119 32,-24 75,-36 131,-36 25,0 49,2 71,5 22,3 41,10 58,20 17,10 30,24 40,42 10,18 15,42 15,73 1,29 -7,51 -26,67 -19,15 -44,27 -76,35 -32,8 -68,14 -109,18 -41,4 -83,9 -125,16 -42,7 -84,16 -126,27 -42,11 -79,28 -111,51 -33,23 -59,53 -80,90 -21,38 -31,86 -31,144 0,53 9,99 27,137 18,39 43,70 74,95 32,25 69,44 111,56 42,12 88,18 137,18 64,0 126,-9 187,-28 61,-19 114,-51 159,-97 1,17 4,34 7,51 3,16 8,33 13,49 l 286,0 c -13,-21 -23,-53 -28,-95 -5,-42 -8,-87 -8,-133 z m -1162,-710 c -28,-36 -66,-65 -114,-85 -48,-21 -110,-31 -186,-31 -53,0 -107,14 -163,41 -56,27 -101,71 -137,130 l -6,0 0,-535 -282,0 0,1419 282,0 0,-539 c 0,-105 17,-180 52,-226 34,-46 90,-68 167,-68 67,0 115,21 141,63 26,42 40,105 40,190 l 0,580 282,0 0,-632 c 0,-64 -6,-122 -17,-174 -11,-52 -31,-97 -59,-133 z m -1491,498 -4,0 -242,-978 -292,0 -246,966 -4,0 -225,-966 -312,0 376,1419 316,0 236,-966 4,0 240,966 310,0 170,-630 212,-789 -306,0 -233,978 z"
   id="path3005"
   style="fill:#fefefe" />

   <path
   d="m 5367,16034 c -345,0 -667,-104 -936,-281 l -654,209 212,-632 c -204,-280 -324,-625 -324,-997 0,-938 763,-1701 1701,-1701 938,0 1701,763 1701,1701 0,938 -763,1701 -1701,1701 z m 0,-3724 c -1117,0 -2023,906 -2023,2023 0,382 106,740 290,1045 l -365,1085 1120,-359 c 290,160 623,252 978,252 1117,0 2023,-906 2023,-2023 0,-1117 -906,-2023 -2023,-2023 z"
   id="path3007"
   style="fill:#fefefe" />

   <path
   d="m 5367,12632 c -938,0 -1701,763 -1701,1701 0,372 120,717 324,997 l -212,632 654,-209 c 269,178 590,281 936,281 938,0 1701,-763 1701,-1701 0,-938 -763,-1701 -1701,-1701 z"
   id="path3009"
   style="fill:url(#id0)" />

   <path
   d="m 4892,13496 c -33,-79 -58,-82 -108,-84 -17,-1 -36,-2 -57,-2 -65,0 -133,19 -174,61 -50,51 -174,170 -174,414 0,244 178,480 202,513 25,33 347,541 847,748 391,162 507,147 596,128 130,-28 293,-124 334,-240 41,-116 41,-215 29,-236 -12,-21 -45,-33 -95,-58 -50,-25 -293,-145 -339,-161 -45,-17 -88,-11 -122,37 -48,67 -95,135 -133,176 -30,32 -79,36 -120,19 -55,-23 -209,-77 -399,-246 -147,-131 -247,-294 -276,-343 -29,-50 -3,-79 20,-106 25,-31 49,-53 74,-82 25,-29 39,-44 55,-78 17,-33 5,-67 -7,-92 -12,-25 -112,-269 -153,-368 z"
   id="path3011"
   style="fill:#fefefe" />

  </g>

 </g>
    </g>
  </g>
</svg>
